<?xml version="1.0" encoding="UTF-8"?>
<svg id="Layer_1" data-name="Layer 1" xmlns="http://www.w3.org/2000/svg" viewBox="0 0 552.39 333.56">
  <path d="m0,166.99C0,114.92,0,62.84,0,10.77,0,.15.73-.8,10.94.4c28.97,3.4,57.99,6.24,87.1,8.12,25.52,1.65,51.02,3.7,76.56,4.66,51.36,1.93,102.77,2.55,154.16,1.4,71.34-1.6,142.58-5.19,213.45-14.08,9.1-1.14,10.3-.09,10.17,8.97-.93,64.62-1.88,129.24-2.86,193.87-.04,2.46-.31,4.92-.59,7.37-.49,4.23-3.89,4.68-7.01,4.74-3.72.07-3.2-3.14-3.2-5.47.04-13.47.14-26.93.34-40.4.12-8.07.2-16.16.8-24.21.46-6.15-1.69-7.15-7.32-5.74-31.13,7.81-62.51,14.53-94.05,20.48-77.87,14.69-156.2,26.14-235.13,33.36-45.14,4.13-90.36,6.74-135.67,8.15-16.38.51-32.75,1.02-49.12.79-6.01-.08-7.68,2.13-7.65,7.88.19,38.16.05,76.32.14,114.47.01,4.88-.89,8.39-6.63,8.78-2.82.19-4.32-.68-4.36-3.59-.03-2.02-.07-4.04-.07-6.06C0,271.59,0,219.29,0,166.99Zm56.5-100.49h-.06c0-3.59,0-7.17,0-10.76.01-3.29-1.62-5.29-4.9-4.94-5.25.56-11.08-3.13-15.69,2-.37.42-.33,1.29-.33,1.95-.02,7.62-.02,15.24,0,22.86.01,2.68,1.48,3.85,4.09,4.37,14.52,2.88,16.87,1.05,16.87-13.46,0-.67,0-1.34,0-2.02Zm-21.07,36.95c0,17.69,0,17.59,15.43,16.75,3.94-.22,5.7-1.68,5.63-5.65-.11-6.04-.28-12.09.07-18.11.31-5.42-1.9-7.58-7.22-8.03-13.93-1.18-13.92-1.33-13.92,12.36,0,.89,0,1.79,0,2.68Zm46.57,2.06c-.47-17.72,3.61-15.59-15.49-16.04-.22,0-.45.01-.67,0-3.39-.13-4.92,1.55-4.9,4.89.04,6.95.04,13.91.01,20.86-.01,2.83,1.11,4.49,4,5.32,12.7,3.64,17.04.56,17.04-12.35,0-.9,0-1.79,0-2.69Zm-46.55,36.32c.43,17.36-3.24,15.88,14.6,16.12,5.05.07,6.71-2.14,6.52-6.88-.22-5.35-.37-10.74.04-16.07.47-6-1.88-8.26-7.85-8.71-13.34-1.01-13.32-1.27-13.32,12.19,0,1.12,0,2.23,0,3.35Zm46.51-73.53c-.02-16.42-.83-17.16-15.77-16.5-3.7.16-5.31,1.52-5.27,5.19.07,6.49.22,12.99-.07,19.46-.24,5.33,2.11,7.03,7.17,7.04,15.88.03,13.77,1.58,13.94-13.17,0-.67,0-1.34,0-2.01Zm-46.48,112.01c.02,17.41,1.2,18.46,16.3,15.48,3.2-.63,4.75-2,4.73-5.24-.04-6.92,0-13.83-.02-20.75,0-2.76-.98-4.5-4.07-5.1-13.97-2.7-16.98-.35-16.94,13.6,0,.67,0,1.34,0,2.01Zm51.01-1.41c0,18.07-.01,17.99,16.25,15.41,3.23-.51,4.84-1.75,4.81-5.09-.07-6.93-.04-13.87-.02-20.81,0-2.94-1.18-4.33-4.32-4.69-15.74-1.78-16.72-1-16.72,14.5,0,.22,0,.45,0,.67Zm-75.5.82c.41,18.56-3.22,16.55,14.5,16.72,4.01.04,5.64-1.68,5.58-5.61-.11-6.24-.44-12.53.11-18.72.59-6.63-2.09-8.46-8.35-8.39-11.83.13-11.84-.17-11.84,11.99,0,1.34,0,2.68,0,4.01Zm96.54-73.5s-.05,0-.07,0c0-3.59-.05-7.17.01-10.76.06-3.5-1.91-5.15-5.04-4.68-5.25.79-11.04-2.91-15.75,1.85-.37.37-.23,1.3-.23,1.96,0,7.17.03,14.34,0,21.52,0,3.25,1.37,4.7,4.78,5.06,16.06,1.71,16.3,1.58,16.29-14.29,0-.22,0-.45,0-.67Zm25.44-.07c0-16.74-.08-16.82-15.87-15.31-.22.02-.45.04-.67.04-3.08.02-4.42,1.74-4.43,4.65-.03,6.92-.02,13.83-.03,20.75,0,3.27,1.53,4.62,4.87,4.94,15.69,1.52,16.13,1.21,16.12-14.4,0-.22,0-.45,0-.67Zm-25.51-36.24c0-16.95-.24-17.1-15.41-16.72-3.97.1-5.75,1.49-5.68,5.48.1,6.47.11,12.94.02,19.41-.05,3.86,1.57,5.79,5.54,5.8,16.99.02,15.5,5.08,15.54-13.96Zm-25.38,110.24c0-16.75-.35-17.08-15.87-15.47-.22.02-.45.04-.67.04-2.99.07-4.51,1.59-4.51,4.6,0,7.15,0,14.29-.01,21.44,0,2.93,1.31,4.32,4.36,4.75,14.76,2.09,16.72.51,16.71-14.03,0-.45,0-.89,0-1.34Zm50.93-37.87c0-3.13-.16-6.26.04-9.38.27-4.41-1.78-6.06-5.99-5.84-3.34.18-6.7.15-10.05.12-3.28-.02-5,1.46-4.99,4.82.01,6.92,0,13.84,0,20.77,0,3.35,1.68,4.55,4.98,4.8,16.03,1.23,16.03,1.31,16.03-14.63,0-.22,0-.45-.02-.67Zm-25.45.65c0-2.92-.21-5.85.05-8.75.46-5.19-1.54-7.2-6.89-7.09-16.43.31-14.06-1.24-14.25,13.88-.03,2.24,0,4.49,0,6.73q.02,10.22,10.57,10.11t10.53-10.84c0-1.35,0-2.69,0-4.04Zm-46.6-.72c.43,16.95-3.63,15.85,15.64,15.69.22,0,.45-.03.67-.03,3.37-.02,4.78-1.84,4.76-5.08-.04-6.92-.06-13.84-.02-20.77.02-3.36-1.63-4.58-4.9-4.93-15.55-1.67-16.15-1.2-16.15,14.46,0,.22,0,.45,0,.67Zm72-71.43c-.16-17.83,1.76-15.9-15.59-16.3-3.58-.08-5.47,1.36-5.45,5.07.04,6.7.05,13.41,0,20.11-.03,3.68,1.77,5.15,5.37,5.17,19.04.13,15.29,1.69,15.66-14.06Zm-121.99-7.4c0,17.44,0,17.28,13.26,17.59,4.85.11,7.03-1.39,6.85-6.41-.22-6.24-.23-12.5,0-18.74.18-4.77-1.63-6.65-6.52-7-13.68-1-13.77-4.03-13.6,12.56,0,.67,0,1.34,0,2.01Zm20.08,40.57q0-17.6-14.16-17.17c-.22,0-.45,0-.67-.01-3.75-.24-5.23,1.7-5.21,5.26.05,7.15,0,14.3.02,21.45,0,2.71.81,4.53,3.94,5.21,14.57,3.14,16.08,2.02,16.08-12.73,0-.67,0-1.34,0-2.01Zm80.95,74.6c0,16.6,1.37,17.75,16.44,14.58,3.2-.67,4.65-2.06,4.61-5.32-.09-6.47-.07-12.93-.02-19.4.03-3.28-1.4-4.7-4.74-5.06-15.14-1.64-16.28-.69-16.28,14.53,0,.22,0,.45,0,.67Zm-80.92-36.96q0-16.86-14.3-15.98c-.22.01-.45.01-.67.01-3.24-.01-5.04,1.47-5.04,4.84,0,7.38,0,14.76-.04,22.13-.01,3.25,1.44,4.67,4.8,5.04,14.51,1.61,15.22,1.07,15.24-13.36,0-.89,0-1.79,0-2.68Zm106.4,35.9c.42,15.67-3.73,16.39,16.15,14.03.22-.03.44-.05.67-.06,3.12-.11,4.25-1.9,4.23-4.82-.05-6.48-.07-12.96-.01-19.44.03-3.27-1.28-4.74-4.71-5.04-15.51-1.38-16.33-.73-16.33,14.67v.67ZM56.49,30.35s-.02,0-.03,0c0-3.13.02-6.27,0-9.4-.02-2.57-.21-5.43-3.52-5.44-5.62-.01-11.39-3.7-16.78.26-.87.64-.68,2.95-.71,4.49-.08,4.92.33,9.88-.13,14.77-.59,6.3,1.92,8.75,8.14,9.25,13.05,1.05,13.03,1.29,13.04-11.92,0-.67,0-1.34,0-2.01Zm126.74,39.79c0-2.68-.14-5.38.03-8.05.29-4.63-1.8-6.31-6.36-6.3-17.51.05-14.37-1.34-14.66,13.85-.03,1.34,0,2.68,0,4.03q0,11.38,11.17,11.35,9.8-.03,9.84-9.51c0-1.79,0-3.58-.01-5.37Zm25.49.59c-.36-16.59,3.05-14.65-15.75-14.79-3.6-.03-5.38,1.3-5.31,5.07.12,6.24.11,12.49,0,18.74-.06,3.72,1.61,5.19,5.26,5.13,18.7-.29,15.47,1.7,15.8-14.15Zm-25.51,34.96c0-3.35.05-6.71-.02-10.06-.04-1.81-.25-3.94-2.4-4.31-5.31-.91-10.71-.72-16.02-.05-2.53.32-2.48,2.82-2.49,4.85-.02,6.26.07,12.52-.03,18.78-.06,3.69,1.57,5.27,5.24,5.22,18.64-.28,15.49,1.25,15.72-14.43Zm-20.95,34.69c.33,16.04-3.08,15.08,15.04,14.63,4.18-.1,6.15-1.69,6.04-6-.15-5.8-.15-11.61-.03-17.41.09-4.35-1.92-5.9-6.14-5.78-17.42.48-14.67-1.35-14.92,14.55Zm-3.77,1.63c0-2.69-.19-5.39.04-8.06.45-5.13-1.5-7.18-6.85-7.2-14.25-.06-14.25-.26-14.25,14.18,0,1.79,0,3.58,0,5.37q.03,10.29,10.6,10.04,10.46-.25,10.47-10.98c0-1.12,0-2.24,0-3.36ZM60.89,30.63c.27,17.36-2.49,14.55,15.59,15.52.22.01.45,0,.67.03,3.47.53,4.92-.9,4.82-4.45-.16-5.6-.37-11.23.03-16.81.43-5.99-2.33-7.93-7.84-8.06-15.62-.37-12.97-2.86-13.27,12.42,0,.45,0,.9,0,1.35Zm147.92,108.36c0-15.81-.61-16.24-16.31-13.51-3.22.56-4.81,1.79-4.76,5.15.11,6.05.1,12.11.05,18.16-.03,3.28,1.36,4.77,4.75,5.09,14.98,1.43,16.26.38,16.26-14.22,0-.22,0-.45,0-.67ZM107.4,33.98c0-15.77-.09-15.77-15.25-15.77-3.96,0-5.86,1.28-5.79,5.36.1,5.38.24,10.77-.07,16.14-.32,5.38,1.57,7.53,7.22,7.67,13.9.33,13.89.58,13.89-13.4Zm101.44,138.78c0-2.68-.18-5.38.04-8.04.37-4.48-1.5-5.73-5.9-5.47-17.59,1.06-15.03-1.03-15.14,16.13-.09,14.73.07,14.63,14.44,12.59,5.1-.72,7.05-2.9,6.59-7.85-.22-2.44-.04-4.91-.04-7.37Zm-21.13-67.68c0,2.92.19,5.85-.04,8.75-.4,4.96,2.05,6.33,6.5,5.8,16.31-1.94,14.44,1.51,14.6-15,.01-1.57,0-3.14,0-4.71-.04-9.34-.07-9.38-9.43-9.24-12.53.19-11.62-1-11.64,11.7,0,.9,0,1.79,0,2.69ZM31.03,27.67c0-15.87,0-15.78-14.25-16.23-3.95-.12-5.87,1.16-5.81,5.24.08,6.02.24,12.06-.08,18.07-.28,5.25,1.94,6.91,7,7.19,13.14.73,13.13.94,13.13-12.27,0-.67,0-1.34,0-2.01Zm203.17,76.07c0-3.13.04-6.27-.01-9.4-.03-2.1-.42-3.84-2.94-4.59-11.84-3.54-18.07.92-18.06,13.1,0,3.58.07,7.17.02,10.75-.05,3.31,1.37,4.7,4.81,4.92,14.5.92,16.26-.59,16.2-14.77Zm-20.91,68.41c0,2.91.17,5.84-.04,8.74-.31,4.33,1.06,5.85,5.76,5.45,17.63-1.49,15.12.01,15.3-16.6.03-2.91-.01-5.83-.09-8.74-.06-2.32-1.08-3.58-3.62-3.9-13.75-1.72-17.31,1.32-17.31,15.05Zm-75.85-66.06c0,1.79,0,3.58,0,5.38.03,9.73.16,9.86,9.69,9.53,1.34-.05,2.68-.22,4.02-.27,4.6-.17,6.93-2.22,6.71-7.13-.25-5.59-.17-11.2-.04-16.8.1-4.33-1.88-5.76-6.11-5.91-14.28-.53-14.28-.66-14.28,13.86,0,.45,0,.9,0,1.34Zm96.85,30.96h-.03c0-2.9-.07-5.81.02-8.71.11-3.75-1.7-4.94-5.34-5.04-14.98-.38-15.69.22-15.69,15.22,0,.45,0,.89,0,1.34,0,13.53.11,13.44,13.37,12.12,5.81-.58,8.54-2.9,7.73-8.9-.27-1.97-.04-4.02-.04-6.03Zm-21.15-67.12q0,15.32,15.48,13.88c.22-.02.45-.03.67-.03,3.3-.02,4.92-1.61,4.89-4.98-.06-6.06-.03-12.11-.01-18.17,0-2.94-1.22-4.34-4.33-4.74-15.23-1.99-16.69-.84-16.69,14.05Zm46.54.06c-.32-15.89,3-14.31-15.56-14.21-.22,0-.45.03-.67.03-3.4-.06-4.8,1.77-4.79,5,.02,5.8.08,11.6-.03,17.4-.08,4.1,1.94,5.43,5.8,5.34,18.02-.43,14.97.94,15.25-13.55Zm-122.94-35.46c0,3.14-.02,6.28,0,9.41.02,1.58-.04,3.6,1.65,4.09,5.62,1.63,11.64,2.9,17.13.97,4.07-1.43,1.91-6.34,2.22-9.71.28-3.11-.17-6.29.1-9.41.49-5.67-1.61-7.97-7.58-8.1-13.57-.31-13.56-.58-13.53,12.74Zm101.95,102.36s.04,0,.06,0c0,3.14-.03,6.27.01,9.41.03,2.16.5,4.3,3.21,4.17,4.92-.25,9.83-.71,14.72-1.25,2.58-.28,3.01-2.34,3.01-4.5.01-6.05-.02-12.1.01-18.15.01-2.93-1.12-4.39-4.29-4.73-13.69-1.47-16.72,1.05-16.73,14.37v.67Zm-75.71,38.66s.06,0,.1,0c0,3.8-.06,7.61.02,11.41.06,2.72,1.41,4.06,4.29,3.8,4.23-.39,8.47-.66,12.71-.94,2.5-.17,3.5-1.5,3.46-3.95-.11-6.71-.12-13.43-.21-20.14-.04-2.81-1.18-4.44-4.31-4.88-13.15-1.85-16.13.55-16.06,13.36,0,.45,0,.9,0,1.34Zm75.78-5.28c.24,17.27-2.2,13.64,14.95,12.55.44-.03.88-.17,1.32-.24,3.06-.47,4.77-2,4.72-5.33-.09-6.02,0-12.04-.02-18.06,0-2.07-.12-3.83-2.99-4.26-13.56-1.99-17.99,1.71-17.98,15.34Zm20.95-67.6q0-14.22-14.16-13.4c-.67.04-1.34.08-2.01.09-3.33.04-4.87,1.74-4.84,5.04.04,5.82.11,11.65,0,17.47-.09,4.17,1.95,5.27,5.84,5.25,15.01-.04,15.19-.12,15.19-14.44Zm-97.51-66.88c.47,15.35-3.48,14.02,15.23,14.21,3.88.04,5.89-1.4,5.81-5.48-.1-5.16-.11-10.32.01-15.48.09-3.83-1.55-5.55-5.37-6.24-14.41-2.58-15.74-1.57-15.68,12.99Zm-4.38,34.66c-.02-15.74-.38-16.02-14.65-14.97-3.85.28-5.76,1.78-5.72,5.7.06,6.25.01,12.49.03,18.74,0,3.21,1.51,4.68,4.84,5.07,14.43,1.73,15.52.83,15.51-13.87,0-.22,0-.45,0-.67Zm106.41,63.89c0,3.13-.05,6.26.02,9.39.05,2.17.68,4.14,3.27,4.27,5.39.27,11.15.31,15.78-2.05,4.02-2.05,1.34-7.36,1.81-11.2.3-2.42-.16-4.94.09-7.37.58-5.65-1.81-7.52-7.38-7.13-15.21,1.06-13.54-1.31-13.58,14.1Zm20.85-65.98c0-3.12.01-6.25,0-9.37-.01-2.21-.69-3.7-3.22-4.27-12.01-2.72-17.78,1.68-17.78,13.75,0,2.45.14,4.92-.01,7.36-.31,4.95,1.94,6.68,6.81,6.5,16.66-.6,14.02.77,14.21-13.97Zm.05,32.61c0-2.46-.16-4.94.03-7.39.4-4.86-1.08-6.76-6.49-6.16-14.52,1.61-14.55,1.37-14.55,16.18,0,1.34.12,2.7-.02,4.03-.64,5.98,1.11,8.18,7.86,7.47,14.06-1.49,13.14,1.45,13.16-14.13Zm-20.96,66.76q0,14.75,14.9,12c.66-.12,1.32-.28,1.98-.34,3.07-.29,4.15-2.09,4.12-5.01-.07-5.6-.05-11.19-.01-16.79.02-2.83-.83-4.51-4.09-4.91-13.07-1.58-16.91,1.59-16.91,14.38v.67ZM132.23,35.07q0-13.99-13.76-15.1c-.22-.02-.44-.06-.67-.09-3.86-.58-6.01.77-5.95,4.99.09,6.04,0,12.09.03,18.14.01,2.62.55,4.66,3.77,5.38,13.23,2.95,16.57.48,16.57-12.64,0-.22,0-.45,0-.67Zm156.71,32.42c0,3.12-.03,6.25,0,9.37.03,2.72,1.51,3.79,4.18,4.15,14.42,1.94,16.82-.07,16.82-14.43,0-1.34-.16-2.7.03-4.01.95-6.55-1.14-9.04-8.35-8.52-14.58,1.05-12.56-.84-12.69,13.43Zm-75.79-30.97c0,2.9-.01,5.81,0,8.71.02,2.49.88,4.11,3.64,4.76,13.24,3.08,17.34,0,17.34-13.22,0-2.68-.08-5.36-.02-8.04.08-3.28-1.31-4.69-4.71-5.05-15.64-1.65-16.32-1.2-16.26,12.84Zm-4.55.6c0-3.14.04-6.28-.01-9.42-.04-2.31-1.13-3.56-3.53-4.13-13.49-3.21-17.43-.3-17.41,13.09,0,2.69.1,5.39,0,8.08-.13,3.68,1.55,5.28,5.22,5.32,18.86.22,15.53.85,15.73-12.93Zm29.96-.37c0,2.01.17,4.04-.03,6.03-.56,5.61,1.98,7.75,7.43,7.23,2.88-.27,5.8-.16,8.7-.13,3.28.04,4.98-1.35,4.93-4.79-.08-5.36-.03-10.72-.04-16.08,0-2.44-.73-4.21-3.42-5.01-12.24-3.66-17.59.17-17.58,12.75Zm96.82,91.89c0-2.23-.15-4.47.03-6.69.44-5.31-1.58-7.09-7.06-6.35-13.97,1.87-14,1.67-13.99,16.21,0,2.45.01,4.91.1,7.36.09,2.43,1.48,3.36,3.86,3.66,12.72,1.6,17.07-1.96,17.05-14.19Zm-20.99,32.89c0,2.47.14,4.94-.03,7.39-.32,4.67,1.19,6.33,6.26,5.51,17.32-2.79,14.46-.46,14.75-16.95.02-.9-.11-1.81.01-2.69.96-6.51-1.31-8.56-8.14-7.61-12.8,1.8-12.85,1.39-12.85,14.34Zm20.98-64.23q.04-14.35-14.08-12.38c-.89.12-1.78.28-2.67.33-3.09.2-4.28,1.97-4.22,4.91.05,2.24-.02,4.49-.02,6.73,0,15.4-.01,15.31,14.99,13.52,4.09-.49,6.16-2.18,6.01-6.37-.08-2.24-.01-4.49-.01-6.73Zm-71.28-60.51c0,2.69-.06,5.39.02,8.08.06,1.8.16,4.03,2.31,4.38,5.57.91,11.43,1.33,16.55-1.02,3.94-1.81,1.78-6.47,2.06-9.86.28-3.34.05-6.73,0-10.09-.03-2.22-.82-3.72-3.25-4.39-12.63-3.47-17.75.2-17.69,12.9Zm50.35,29.21c0,3.14-.03,6.27.01,9.41.03,1.94.62,3.76,2.84,3.89,5.37.31,11.08.98,15.84-1.6,4.26-2.31,1.83-7.33,2.2-11.15.3-3.1.03-6.26-.06-9.4-.07-2.3-1.22-3.57-3.58-4.12-12.66-2.94-17.31.49-17.24,12.96Zm25.37,30.09c0,2.23.15,4.47-.03,6.69-.42,5.13,1.73,6.57,6.77,5.92,14.28-1.87,14.3-1.7,14.3-16.06,0-.89-.12-1.8.02-2.67,1.06-6.71-1.8-8.18-8.23-7.57-13.56,1.29-12.83-1.12-12.82,13.7Zm20.99,28.84c0-1.79-.15-3.6.03-5.38.56-5.64-1.47-7.54-7.37-6.59-13.65,2.2-13.69,1.95-13.68,16.24,0,2.46.03,4.93.14,7.39.09,2.12,1.27,3.05,3.42,3.33,12.69,1.66,17.47-2.4,17.47-15Zm-21.01,33.4s.03,0,.04,0c0,2.9-.04,5.81.02,8.71.04,1.92.64,3.92,2.89,3.73,5.52-.46,11.51-.02,16.25-3.02,3.6-2.29,1.63-7.05,1.69-10.68.23-14.15.14-14.01-13.95-12.32-4.85.58-7.47,2.36-6.97,7.56.19,1.99.03,4.02.03,6.03Zm21.04-94c0-1.79-.17-3.6.03-5.36.7-6.06-2.14-7.74-7.86-7.42-15.03.84-13.08-1.07-13.19,13.69-.09,12.5-.02,12.05,12.27,11.92,7.13-.07,9.8-2.63,8.78-9.49-.16-1.09-.02-2.23-.03-3.35Zm155.63,9.22c0,2.46-.02,4.92,0,7.38.04,2.91,1.59,3.99,4.37,3.48,5.06-.93,10.12-1.83,15.17-2.82,2.78-.54,3.89-2.43,4.47-5.14,3.21-15.03,1.12-17.36-13.8-14.98q-10.17,1.62-10.22,12.07Zm-226.94,25.89c0,3.36.05,6.72-.02,10.08-.04,2.47,1,3.48,3.54,3.8,13.25,1.7,16.91-1.34,16.91-14.39,0-1.79.02-3.59,0-5.38-.09-8.07-.31-8.26-8.58-7.36q-11.84,1.29-11.84,13.24Zm-.64-63.52c0,2.23.15,4.48-.03,6.69-.4,4.76,1.87,6.27,6.37,6.13,16.86-.53,14.52,1.13,14.73-14.19.01-.89-.1-1.8.02-2.68.82-6.37-1.78-8.68-8.3-8.41-14.29.6-12.66-1.34-12.78,12.45Zm97.35,27.04c0-3.53,0-6.45,0-9.36,0-2.65-1.01-4-3.94-4.21-15-1.09-17.05.68-17.03,15.37,0,2.24.02,4.48.11,6.72.08,1.95.79,3.66,2.98,3.84,5.4.44,11.12.62,15.84-1.8,4.28-2.2,1.18-7.41,2.05-10.55Zm-20.96,61.63c0,2.9-.05,5.8.02,8.69.04,1.64.49,3.36,2.54,3.24,5.55-.34,11.51-.13,16.33-2.75,4.02-2.19,1.55-7.36,1.94-11.19.3-2.87.05-5.79.02-8.69-.02-2.26-.82-3.66-3.4-4.05-12.39-1.87-17.52,2.38-17.45,14.75Zm20.83,27.54h-.03c0-2.69.02-5.38,0-8.07-.02-1.6-.2-3.79-1.97-3.8-5.81-.05-11.87.1-17.08,2.67-3.43,1.7-1.8,6.13-1.82,9.34-.09,17.22-1.8,15.62,15.7,12.94,3.71-.57,5.55-2.45,5.24-6.35-.18-2.23-.03-4.48-.03-6.72Zm-20.88-58.48c0,1.79.15,3.59-.03,5.35-.6,5.98,1.64,7.83,7.77,6.84,13.21-2.15,13.26-1.87,13.27-15.09,0-2.23-.02-4.46-.07-6.7-.05-2.31-1.09-3.59-3.51-4.08-11.84-2.37-17.43,1.96-17.43,13.67Zm-75.65,39.29h-.05c0,2.9.04,5.81-.01,8.71-.05,2.33.64,3.62,3.3,3.99,12.45,1.75,17.17-2.07,17.16-14.21,0-2.9-.03-5.81-.06-8.71-.03-3.25-1.47-4.72-4.91-4.86-13.75-.57-15.43.91-15.43,14.41,0,.22,0,.45,0,.67Zm20.39,30.01c0-2.46-.19-4.93.04-7.36.46-4.9-1.66-6.15-6.32-5.56-16.97,2.15-13.73.81-14.07,15.15-.07,2.9,0,5.8.14,8.7.11,2.3,1.32,3.51,3.73,3.9,11.38,1.81,16.49-2.31,16.49-13.49,0-.45,0-.89,0-1.34Zm206.31-62.37q-.08,11.52,11.09,9.17c1.09-.23,2.18-.46,3.28-.68q9.51-1.91,9.58-11.71c.09-12.06.09-12.03-12.15-9.64-13.28,2.59-11.54,1.09-11.8,12.85Zm24.89-56.64q.07-10.75-10.81-9.55c-1.78.2-3.55.75-5.32.71-6.63-.14-7.99,3.39-7.91,9.38.22,16.4-.32,13.65,13.91,11.56,10.08-1.48,10.05-1.67,10.13-12.09Zm-1.18,79.11q.06-11.46-11.04-8.99c-1.75.39-3.49.96-5.26,1.1-5.85.45-7.75,3.41-7.67,9.28.2,14.41-.08,14.41,13.72,11.28q10.19-2.31,10.25-12.67Zm-128.26-62.98c0-13.38-.05-13.13-12.71-11.97-6.58.6-9.13,3.28-8.4,9.79.42,3.77.06,7.62.13,11.43.03,1.83.26,4.04,2.66,3.88,5.56-.37,11.63.61,16.45-2.35,3.97-2.44,1.03-7.52,1.86-10.77Zm-21.82,90.49h.03c0,2.69-.03,5.37,0,8.06.02,1.59.11,3.64,1.9,3.89,5.66.8,11.17-.77,16.41-2.53,4.17-1.4,2.6-5.77,2.57-8.89-.18-17.72,2.84-15.42-15.2-13.11-4.17.53-6,2.38-5.73,6.54.13,2.01.02,4.03.02,6.04Zm-50.09-116.97c0,2.56.18,4.59-.03,6.57-.64,5.95,2.08,7.13,7.55,6.45,13.53-1.69,13.57-1.47,13.51-15.02,0-2.01-.05-4.01-.18-6.01-.09-1.42-.7-2.82-2.19-3-5.54-.67-11.47-1.49-16.5.58-4.47,1.84-1.22,7.28-2.16,10.43Zm-25.45,2.24c0,1.79.16,3.6-.03,5.37-.6,5.62,1.41,7.37,7.28,6.66,13.88-1.69,13.67-1.4,13.88-16.15.09-6.27-1.7-8.81-8.35-8.53-14.46.61-12.65-.74-12.79,12.66Zm100.93,111.4c0,1.57.14,3.15-.02,4.7-.61,5.85,1.57,7.29,7.41,6.07,15.84-3.32,13.28-1.34,13.62-16.37.05-2.01,0-4.03-.04-6.04-.04-2.09-.87-3.11-3.2-3.34-12.79-1.26-17.74,2.85-17.75,14.98Zm.09-29.13c.86,3.11-2.34,8.72,1.95,10.43,5.12,2.05,11.06-.25,16.31-2,4.25-1.42,2.63-5.76,2.61-8.86-.12-17.08,3.32-15.29-16.45-12.48-3.27.46-4.6,2.31-4.45,5.53.11,2.24.02,4.48.02,7.38Zm.11-58.97s.04,0,.06,0c0,2.67-.05,5.35.02,8.02.04,1.61.39,3.59,2.31,3.47,5.52-.32,11.41.4,16.37-2.26,4.04-2.17,2.13-6.88,2.19-10.45.22-12.42.1-11.96-12.34-11.77-7.26.11-9.58,2.99-8.64,9.66.15,1.09.02,2.22.02,3.34Zm20.95,28.19c0-2.08-.14-3.66.02-5.21.6-5.86-1.73-7.94-7.76-7.4-13.22,1.19-13.24.95-13.26,13.96,0,2.46,0,4.92.08,7.38.07,2.01.96,3.59,3.13,3.65,5.4.16,11.05-.07,15.77-2.35,3.92-1.9,1.3-6.96,2.02-10.03Zm4.39-2.54q-.04,12.23,11.33,10.78c1.76-.23,3.51-.63,5.27-.88,2.84-.41,4.36-1.9,4.34-4.9-.04-4.9.05-9.8.02-14.71-.01-1.87-.39-4.01-2.76-3.73-5.5.65-11.55-.21-16.31,2.72-3.93,2.42-1.08,7.47-1.89,10.72Zm-54.54-52.59c-.94-3.18,2.31-8.59-2.08-10.5-5.1-2.22-11.2-.87-16.42.84-4.35,1.43-2.41,6.22-2.46,9.53-.22,13.13-.11,12.79,12.87,12.67,6.48-.06,9.03-2.33,8.12-8.65-.16-1.09-.02-2.23-.02-3.89Zm75.44,79.11c-.12-14.29,1.17-12.17-11.91-10.48-1.55.2-3.07.61-4.62.73-2.96.24-4.41,1.73-4.39,4.73.03,4.9-.04,9.8-.01,14.7.01,2.2.7,4.34,3.3,4.05,5.5-.62,11.56-.31,16.14-3.45,3.3-2.26.9-7.13,1.5-10.29Zm-21.09,31.43c0,1.34.16,2.71-.03,4.02-.85,6.1,1.34,7.96,7.5,6.48,15.52-3.73,13.19-.82,13.48-16.52.04-2.01.03-4.03-.04-6.04-.06-1.83-.98-2.71-2.91-2.93-11.83-1.32-17.94,3.72-18.01,14.98Zm.33-84.27c.23,11.27-2.33,9.82,12.06,8.58.22-.02.44-.1.67-.09,6.64.05,8.65-3.25,8.38-9.73-.71-17.31,2.74-14.03-15.54-13.17-3.73.18-5.8,1.98-5.59,5.97.12,2.24.02,4.48.02,8.45Zm-50.3,32.68c0,2.02.13,4.04-.03,6.05-.41,5.2,1.72,6.34,6.82,5.73,15.69-1.87,13.33-1.6,13.55-15.3.04-2.24.11-4.48.22-6.72.1-2.16-.81-3.16-3.02-3.57-11.82-2.21-17.56,2.24-17.55,13.81Zm126.68-70.61q-.08,10.77,10.63,9.41c2.44-.31,4.88-.66,7.33-.86,4.34-.36,5.99-2.48,6.08-6.98.31-14.11.49-14.1-13.75-12.39-.22.03-.44.05-.67.08q-9.56,1.06-9.63,10.73Zm-126.75,100.55s.06,0,.09,0c0,2.68-.06,5.36.02,8.04.06,1.89.69,4.12,2.84,3.78,5.6-.88,11.81.34,16.55-3.83,1.52-1.33,1.28-19.02-.04-20.44-.69-.74-1.81-1.3-2.83-1.51-10.84-2.23-16.62,2.41-16.64,13.29,0,.22,0,.45,0,.67Zm21.12-89.84c0-1.65-.13-2.79.02-3.88.87-6.21-1.63-8.23-7.92-7.76-13.16.98-13.18.7-13.1,14.54.01,1.79.03,3.58.17,5.35.13,1.66.84,3.29,2.61,3.45,5.34.5,10.98,1.09,15.83-1.26,4.59-2.22,1.48-7.3,2.39-10.45Zm75.61,20.14q.06-11.23-10.9-10.31c-.67.06-1.34.14-2.01.14-5.69.04-8.27,2.26-8.19,8.57.19,16.57-.11,16.5,16.32,13.55,3.23-.58,4.84-1.94,4.79-5.22-.03-2.24,0-4.48,0-6.72Zm-21.08,29.69q-.09,12.29,11.63,10.53c.44-.07.91-.05,1.33-.18,2.8-.9,7.28.11,7.63-3.91.54-6.11,1.5-12.41-.69-18.46-.16-.44-1.14-.85-1.71-.82-5.54.28-11.47-.09-16.27,2.69-3.7,2.15-1.26,7.04-1.92,10.15Zm-.19,28.38c.78,3.6-1.42,7.81,1.75,10.84,1.93,1.85,17.19-1.81,18.12-4.34,2.22-6.05,1.21-12.39.86-18.63-.03-.62-1.22-1.75-1.73-1.68-5.74.84-11.87.91-17.05,3.16-3.75,1.63-1.19,6.99-1.95,10.64Zm25.74-59.57q-.02,12.28,11.65,10.4c1.76-.28,3.51-.68,5.29-.9,3.09-.4,4.31-2.42,3.95-5.17-.72-5.55,2.31-11.52-1.81-16.68-.11-.14-.41-.2-.62-.2-5.57.17-11.45-.01-16.36,2.48-3.91,1.98-1.45,6.96-2.09,10.07Zm-1.05,83.06q-.06,11.65,11.05,9.11c2.17-.5,4.34-1.04,6.49-1.61,1.6-.43,3.07-1.31,3.12-3.07.15-5.57.17-11.14.08-16.71-.02-1.53-1.27-2.11-2.79-2.3-11.07-1.37-17.9,4.16-17.95,14.58Zm21.13-30.23q.09-12.05-11.23-10.07c-1.54.27-3.07.68-4.62.87-2.51.31-4.41,1.45-4.56,4.08-.31,5.35-.38,10.72-.47,16.08-.02,1.46.64,2.91,2.32,2.59,5.69-1.07,11.92-.72,16.84-3.9,3.32-2.14,1.15-6.7,1.72-9.65Zm-49.86-75.59q.03-10.94-10.38-10.41c-1.79.09-3.58.21-5.38.25-3.11.07-5.54,1.19-5.13,4.69.67,5.75-2.49,11.99,2.15,17.22.12.13.42.13.64.14,5.63.24,11.56.38,16.43-2.25,3.36-1.82,1.12-6.66,1.66-9.64Zm4.01,111.57q-.03,11.06,11.09,8.55c1.09-.25,2.21-.42,3.29-.71,2.58-.7,5.76-1.06,5.69-4.61-.11-5.94,1.68-12.05-1.19-17.78-.21-.42-1.21-.7-1.82-.64-5.14.44-10.56.72-14.98,3.22-3.82,2.17-1.52,7-2.08,10.62-.07.44,0,.9-.01,1.34Zm.41-112.06c1.1,3.39-3.02,10.04,5.9,9.93,13.24-.16,15.62-1.22,14.91-9.98-.35-4.37,4.56-12.36-5.73-12.37-14.41,0-15.01.53-15.09,12.42Zm25.24,50.48q-.06,12.28,11.76,10.29c1.76-.3,3.49-.72,5.23-1.12,1.67-.39,2.9-1.4,3.02-3.14.36-5.33.62-10.67.83-16.01.06-1.45-.66-2.93-2.23-2.77-5.52.55-11.38.3-16.35,2.82-4.16,2.1-1.52,6.91-2.26,9.93Zm-75.5-47.94c-.21,14.67.54,13.08,11.83,11.54,1.32-.18,2.67-.23,4-.28,4.01-.15,4.94-2.93,4.43-6.01-.9-5.36,3.45-12.6-3.01-15.71-4.5-2.17-10.86-1.09-15.63,1.18-3.74,1.78-.76,6.54-1.62,9.28Zm75.73-5.92c0,2.69.01,4.93,0,7.17-.02,2.47,1.03,3.41,3.65,3.57,14.52.86,19.22-3.96,17.38-18.16-.2-1.57-.15-3.61-2-3.83-5.82-.68-11.86-.27-17.13,1.81-3.75,1.48-1.22,6.51-1.9,9.44Z" style="fill: #444;"/>
</svg>