<svg width="1282" height="1458" viewBox="0 0 1282 1458" fill="none" xmlns="http://www.w3.org/2000/svg">
<path d="M551.3 128.151C551.3 128.151 614.289 178.108 735.922 128.151C857.555 78.1939 914.028 -19.5489 1001.99 6.51707C1089.96 32.5831 1186.62 53.2169 1258.29 128.151C1329.97 203.085 1208.34 482.192 1080.19 499.568C952.04 516.944 357.989 564.728 327.582 717.856C297.175 870.984 -132.886 897.319 45.2199 1010.26C223.326 1123.21 165.767 1368.65 371.02 1319.78C576.273 1270.91 1066.28 937.772 1197.64 1102.38C1328.99 1267 1119.99 1267.57 1197.64 1449.69" stroke="#707070" stroke-width="3"/>
<mask id="mask0_1_3083" style="mask-type:luminance" maskUnits="userSpaceOnUse" x="1167" y="1409" width="50" height="49">
<path d="M1216.73 1439.3L1184.78 1409.5L1167.59 1427.95L1199.53 1457.74L1216.73 1439.3Z" fill="white"/>
</mask>
<g mask="url(#mask0_1_3083)">
<path d="M1195.02 1445.44C1194.16 1443.53 1193.3 1441.71 1192.51 1439.88C1189.1 1431.9 1186.38 1423.66 1184.38 1415.22C1184.1 1414.05 1183.83 1412.88 1183.57 1411.71C1183.52 1411.52 1183.51 1411.32 1183.55 1411.13C1183.58 1410.94 1183.66 1410.75 1183.78 1410.6C1183.89 1410.44 1184.04 1410.31 1184.21 1410.21C1184.39 1410.12 1184.58 1410.07 1184.77 1410.06C1185.05 1410.02 1185.34 1410.09 1185.57 1410.25C1185.81 1410.4 1185.98 1410.65 1186.04 1410.92C1187.16 1413.77 1188.24 1416.65 1189.4 1419.48C1192.7 1427.54 1196.35 1435.44 1200.1 1443.3C1200.33 1443.77 1200.56 1444.24 1200.84 1444.83C1200.97 1443.92 1201.07 1443.13 1201.19 1442.34C1201.43 1440.75 1201.69 1439.17 1201.95 1437.59C1201.99 1437.36 1202.09 1437.15 1202.23 1436.96C1202.33 1436.82 1202.48 1436.7 1202.65 1436.65C1202.83 1436.59 1203.01 1436.58 1203.19 1436.64C1203.35 1436.69 1203.5 1436.79 1203.6 1436.93C1203.7 1437.07 1203.75 1437.24 1203.74 1437.42C1203.98 1439.71 1204.29 1442 1204.48 1444.3C1204.65 1446.53 1204.66 1448.78 1204.81 1451.02C1204.83 1451.41 1204.75 1451.8 1204.58 1452.15C1204.41 1452.5 1204.15 1452.81 1203.83 1453.03C1203.51 1453.26 1203.14 1453.4 1202.75 1453.45C1202.36 1453.49 1201.96 1453.44 1201.6 1453.29C1197.87 1451.89 1194.17 1450.44 1190.55 1448.77C1189.35 1448.28 1188.32 1447.44 1187.6 1446.35C1187.42 1446.11 1187.3 1445.83 1187.26 1445.52C1187.23 1445.22 1187.28 1444.92 1187.4 1444.64C1187.53 1444.37 1187.73 1444.13 1187.98 1443.96C1188.23 1443.79 1188.52 1443.69 1188.83 1443.68C1189.91 1443.52 1191.02 1443.66 1192.03 1444.09C1192.84 1444.41 1193.62 1444.8 1194.41 1445.16C1194.6 1445.24 1194.78 1445.33 1195.02 1445.44" fill="#707070"/>
</g>
</svg>
