<?xml version="1.0" encoding="UTF-8"?>
<svg id="Layer_1" data-name="Layer 1" xmlns="http://www.w3.org/2000/svg" viewBox="0 0 1200 1200">
  <path d="m695.21,552.03c-6.79,0-13.59,0-20.38,0-3.73,0-6.47,1.48-8.15,4.98-5.81,12.09-13.43,23.13-20.68,34.34-11.3,17.48-15.89,35.49-7,55.42,1.97,4.42,3.01,8.94-1.69,12.68-1.54,1.23-1.22,3.05-.46,4.7,8.19,17.72,7.69,37.26,11.53,55.89,2.69,13.05,3.05,26.57,7.73,39.26.66,1.79,1.37,3.86-.02,5.49-4.14,4.87-2.42,10.51-2.21,15.89.16,3.98,2.14,5.19,5.9,2.98,5.49-3.22,11.07-6.29,16.71-9.25,9.58-5.04,19.85-7.28,30.65-7.38,17.18-.15,34.41.17,51.23-4.32,4.56-1.22,9.08-2.12,10.26-7.95.47-2.29,2.98-3.51,4.93-4.78,5.72-3.71,11.14-7.7,15.46-13.11,2.89-3.62,6.81-4.52,11.47-3.39,7.86,1.89,14.12,6.14,18.34,12.8,5.48,8.65,12.67,14.59,21.7,19.72,16.3,9.25,22.53,25.15,23.28,43.35.23,5.56-2.72,9.21-7.76,11.22-5.38,2.14-10.91,3.22-15.39-1.55-8.9-9.48-20.54-13.14-32.59-16.14-4.61-1.14-9.2-1.42-13.88-.63-5.02.84-9.45-.34-12.22-4.81-1.89-3.05-4.35-3.66-7.54-3.38-7.27.64-14.16,2.76-20.88,5.42-28.03,11.07-55.95,22.42-84.08,33.22-6.04,2.32-7.37,5.36-5.23,10.94,5.78,15.05,4.92,29.91-1.38,44.59-.59,1.36-1.08,2.78-1.77,4.09-2.04,3.86-4.4,7.63-9.44,7.33-4.77-.29-8.18-3.53-9.18-7.75-4.22-17.84-15.92-30.03-29.48-41.09-3.49-2.85-6.63-6.74-4.63-11.61,2.02-4.91-.46-6.44-4.22-7.92-11.88-4.67-24.17-7.99-36.42-11.49-19.99-5.71-40.04-11.18-59.94-17.17-11.39-3.43-19.76-11.6-27.03-20.46-5.07-6.18-2.91-23.16,2.94-30.75,4.4-5.71,9.22-11.11,13.71-16.76,4.94-6.21,11.76-11.09,13.22-19.77.45-2.68,3.29-4.34,5.41-6.1,4.25-3.52,8.31-7.36,12.93-10.33,10.25-6.59,13.72-17.44,18.32-27.65,1.32-2.93.48-4.69-2.62-5.83-10.96-4.01-18.59-12.38-26.44-20.47-3.03-3.12-3.42-6.14-.75-9.58,1.17-1.51,2.13-3.2,3.43-4.58,11.46-12.17,14.25-26.33,10.81-42.45-2.05-9.57-1.15-19.38-.26-29.16,1.32-14.6.7-29.27.43-43.92-.03-1.38-.56-3.18-1.53-4.05-7.57-6.75-14.68-14.42-25.4-16.03-4.42-.66-7.47-2.7-9.62-6.42-1.49-2.57-3.2-5.04-4.43-7.73-3.75-8.12-9.89-12.41-18.68-14.67-19.98-5.13-36.01-17.73-52.36-29.55-4.47-3.23-8.93-6.49-13.47-9.61-5.94-4.07-12.45-6.11-19.77-5.87-12.68.42-24.76-3.52-36.93-6.16-10.37-2.25-12.63-11.31-5.2-20.86,3.92-5.04,2.39-6.74-1.94-9.46-2.93-1.85-8.17-3.63-5.73-8.34,2.35-4.54,7.01-2.76,10.77-1.03,15.96,7.36,31.99,14.48,47.71,22.47,17.02,8.64,35.05,16.07,54.15,19.65,16.1,3.02,30.9,8.99,44.48,18.14,3.43,2.31,6.99,5.13,11.64,2.24.68-.42,2.14-.03,3.03.41,12.69,6.2,26.65,6.76,40.21,8.95,5.94.96,11.38,4.06,17.99,2.42,12.55-3.11,16.85-7.59,17.4-20.39.02-.42-.12-.95.08-1.26,5.95-9.41,7.33-20.94,12.95-30.2,5.47-9.02,15.91-10.69,26.03-9.77,5.24.47,10.47,1.86,15.51,3.45,15.61,4.93,25.19,15.73,29.42,31.38.48,1.78.82,4.11.08,5.62-4.08,8.32-4.48,17.61-7.32,26.22-1.56,4.73-4.57,8.61-8.62,11.57-2.33,1.7-2.45,3.22-1.8,6.32,2.63,12.49,8.14,20.47,22.52,19.23,3.31-.29,7.18,1.44,10.21,3.22,18.13,10.69,37.94,6.79,57.27,6.97,2.87.03,5.28-1.51,7.33-3.46,7.89-7.51,16.92-13.49,25.99-19.42,5.58-3.65,10.39-8,14.35-13.38,2.91-3.96,4.64-8.11,3.22-13.06-.73-2.56-.6-5.14.42-7.5,2.27-5.26.35-8.92-3.17-13.11-17.92-21.31-37.06-41.44-57.11-60.74-4.1-3.95-7.8-5.52-13.54-3.92-12.07,3.38-22.64-1.59-32.37-7.88-10.78-6.97-18.9-16.47-22.42-29.14-4.99-17.95,7.86-32.41,26.21-29.32,20.39,3.43,34.87,14.9,43.25,33.74,3.6,8.09,4.14,16.51-.79,24.43-1.75,2.81-.93,4.56,1.09,6.62,11.73,11.99,22.91,24.56,35.2,35.93,8.97,8.31,20.44,13.66,29.29,22.34.56.55,1.61,1.09,2.28.95,13.13-2.75,19.14,8.5,26.77,14.91,8.92,7.49,5.13,21.99-5.46,26.86-4.94,2.27-7.76,6.52-10.37,10.87-6.33,10.56-12.18,21.41-18.71,31.84-9.65,15.4-22.88,25.93-41.32,29.17-6.88,1.21-13.61,3.29-20.38,5.09-1.61.43-3.91.9-4.52,2.06-4.36,8.35-11.93,6.6-19.04,6.5-3.82-.05-7.64,0-11.47,0,0-.01,0-.02,0-.03Zm-146.71,212.16c10.28,2.61,17.84,9.65,27.21,13.12-2.51-5.36-5.41-10.22-8.45-15-1.25-1.95-3.12-2.8-5.51-2.07-4.41,1.34-8.84,2.64-13.26,3.96Z" style="fill: #565656;"/>
</svg>