<?xml version="1.0" encoding="UTF-8"?>
<svg id="Layer_1" data-name="Layer 1" xmlns="http://www.w3.org/2000/svg" viewBox="0 0 1200 1200">
  <path d="m513.85,527.72c1.42-29.51,2.86-58.33,4.07-87.15.06-1.48-1.56-3.9-2.96-4.44-29.98-11.69-37.68-46.83-15.5-71.34,17.23-19.04,40.72-16.14,52.69,6.6,5.6,10.64,7.46,22.1,5.95,33.97-1.9,14.86-12.75,26.42-28.05,30.33-2.85.73-5.77,1.23-9.16,1.94-.51,9.57-1.04,19.08-1.51,28.59-.98,19.72-2.05,39.43-2.76,59.16-.09,2.59,1.44,5.38,2.66,7.86,2.51,5.09,6.24,9.75,7.82,15.08,2.73,9.2,8.77,15.27,16.04,20.68,3.4,2.53,6.1,1.89,8.71-1.39,4.92-6.18,9.27-12.14,9.22-20.93-.03-4.86,3.09-9.98,5.6-14.55,3.15-5.75,7.32-10.92,10.7-16.56,5.61-9.35,5.68-18.52-.22-28.17-4.6-7.53-8.93-15.56-11.45-23.95-3.7-12.34-1.12-24.06,8.63-33.31,9.98-9.47,21.9-10.65,34.43-6.84,10.24,3.11,16.75,10.62,18.06,21.04,1.12,8.91.11,18.09.22,27.14.03,2.39.75,4.77,1.16,7.15,2.39-.99,5.37-1.38,7.09-3.06,10.07-9.87,21.44-12.08,35.07-8.62,7.77,1.97,15.59-1.6,20.05-8.31,7.23-10.87,17.31-17.07,29.04-21.66,5.28-2.06,10.2-5.11,15.16-7.93,3.67-2.08,3.74-4.75,1.68-8.51-3.85-7.03-7.3-14.32-10.31-21.75-.85-2.09.39-5.03.67-7.57,2.18.72,4.32,1.78,6.55,2.05,1.95.23,4.53.26,5.91-.81,5.21-4.07,9.8-3.83,14.91.23,4.69,3.73,10.56,5.79,11.28,13.36.84,8.7-.4,16.75-5.66,23.52-7.14,9.2-14.84,17.98-22.67,26.61-6.7,7.38-13.62,14.63-21.03,21.27-4.28,3.84-9.88,6.16-14.64,9.51-6,4.22-11.63,8.97-17.64,13.18-4.37,3.06-9.09,5.62-13.67,8.38-.53.32-1.45.3-1.71.73-5.75,9.3-16.15,15.73-16.23,28.54-.21,35.2-.48,70.41-1.56,105.59-.3,9.78-3.88,19.43-5.22,29.24-.58,4.2.52,8.69,1.16,13,1.83,12.35,4.09,24.65,5.67,37.03,3.15,24.67,7.36,49.08,15.02,72.83,3.8,11.79,2.91,13.03-6.31,20.34-1.72,1.37-2.97,5.36-2.27,7.39,2.6,7.59,6.02,14.91,9.32,22.25,1.81,4.03,4.64,8.32,9.42,6.73,3.73-1.24,7.29-4.65,9.58-8.01,1.88-2.77,1.7-6.9,2.6-10.39.79-3.06,1.32-6.33,2.8-9.05,4.17-7.64,13.61-7.85,17.94-.34,1.86,3.23,3.01,7.05,3.71,10.75,2.25,11.84,7.14,22.43,12.87,33,4.04,7.44,6.13,16.18,7.77,24.59.83,4.23-.54,9.34-2.24,13.52-2.78,6.85-7.94,7.56-12.72,1.9-4.37-5.16-8.05-10.91-11.98-16.44-6.75-9.48-8.7-9.74-18.76-4.4-5.95,3.16-12.21,5.96-18.62,8.01-11.83,3.79-22.56.58-29.39-9.43-8.07-11.82-15.04-24.51-21.22-37.44-3.61-7.56-8.3-11.69-16.37-11.43-9.25.29-16.14-3.69-20.82-11.16-6.29-10.04-11.91-20.49-17.95-30.68-3.11-5.26-6.13-10.64-9.84-15.46-3.34-4.35-7.88-4.57-12.37-1.21-.51.38-1.1.69-1.52,1.15-13.3,14.74-30.07,24.62-47.12,34.24-7.41,4.18-7.31,5.93-2.04,12.71,7.01,9.01,12.31,18.49,12.8,30.5.38,9.47,5.37,13.42,14.29,16.41,6.35,2.13,12.54,5.26,18.13,8.96,7.7,5.09,9.64,13.53,4.49,21.13-4.09,6.04-9.26,11.63-14.92,16.22-5.29,4.28-8.49,8.96-9.91,15.56-3.06,14.26-11.14,25.54-22.34,34.59-2.57,2.07-5.76,3.67-8.93,4.64-7.89,2.42-15.92-2.72-15.63-10.88.25-7.01,1.72-14.36,4.45-20.8,4.21-9.92,9.82-19.25,15.09-28.7,2.71-4.85,2.83-9.56,1.05-14.67-3.3-9.43-10.24-15.75-17.44-22.21-9.73-8.73-19.79-17.47-27.75-27.73-13.43-17.3-14.08-36.6-1.12-54.34,18.59-25.45,33.62-53.72,57.9-74.81,4.46-3.88,8.13-8.66,12.33-12.87,5.99-6,9.02-13.22,9.63-21.59.78-10.88,4.18-20.6,11.57-29,1.88-2.14,1.66-6.18,2.26-9.38.87-4.67.82-9.7,2.57-13.99,4.33-10.59,4.6-21.46,3.8-32.53-.09-1.21-.56-2.68-1.38-3.49-8.42-8.36-16.85-16.7-25.56-24.75-1.08-1-4.15-.93-5.69-.15-4.5,2.3-6.19.24-7.33-3.69-.92-3.19-1.85-6.39-3.1-9.46-2.71-6.67-3.01-13.04.8-19.51,1.17-1.98,1.18-4.67,1.59-7.06.39-2.27-.13-5.8,1.11-6.56,1.58-.97,4.53.27,6.88.59.6.08,1.18.29,2.64.66Z" style="fill: #3c3c3c;"/>
  <path d="m645.37,254.02c3.85-8.56-.23-14.47-2.63-20.7-2.82-7.33-1.25-9.32,6.58-8.32,4.4.56,8.78,1.23,13.15,1.99,4.77.83,5.46,3.36,2.72,7.12-1,1.36-1.96,2.76-3.03,4.06-3.55,4.31-6.41,8.65-5.77,14.86.17,1.65-3.24,4.91-5.28,5.17-1.78.22-3.96-2.76-5.75-4.17Z" style="fill: #3c3c3c;"/>
</svg>