<?xml version="1.0" encoding="UTF-8"?>
<svg id="Layer_1" data-name="Layer 1" xmlns="http://www.w3.org/2000/svg" viewBox="0 0 1200 1200">
  <path d="m410.42,389.3c-.82.29-1.71.7-2.64.89-2.69.57-7.2-.53-7.46,2.54-.36,4.3,4.67,4.58,7.66,4.95,18.3,2.3,31.63,13.95,45.74,23.98,20.82,14.8,40.06,32.05,63.84,42.2,10.81,4.62,21.62,9.12,32.01,14.64,5.1,2.71,10.16,5.18,12.85,10.88,1.62,3.44,5.25,4.04,8.75,4.18,3.65.15,7.33-.04,10.96.28,8.76.79,13.28,5.59,15.37,14,5.95,23.94,1,46.2-11.01,66.83-6.72,11.54-4.85,23.76-5.94,35.76-.51,5.63,4.93,6.52,9.41,7.39,10.11,1.98,13.76,10.14,8.78,19.47-15.69,29.38-26.55,60.41-30.92,93.49-1.82,13.76-4.25,27.32-8.61,40.49-1.65,5-1.34,9.23,3.3,12.46,2.94,2.05,3.48,5.12,3.23,8.35-.8,10.05,1.67,19.69,3.31,29.46,1.34,7.98,6.96,12.69,12.63,17.27,12.83,10.36,27.16,18.53,41.05,27.32,2.43,1.54,4.88,3.03,7.27,4.63,3.34,2.24,4.62,4.73,3.28,9.21-2.37,7.91,1.87,13.78,10.19,13.48,7.94-.29,12.63,3.44,16.93,9.14,4.09,5.41,8.26,10.81,12.91,15.73,7.75,8.18,14.98,6.31,18.53-4.51,3.91-11.88.6-23.01-5.23-33.06-6.68-11.53-13.99-22.4-14.86-36.41-.47-7.52-6.36-11.67-13.36-13.75-4.94-1.47-9.54-1.18-11.91,4.27-1.91,4.37-4.02,4.41-6.51.73-6.43-9.51-12.95-18.97-19.03-28.7-2.4-3.85,1.42-15.11,5.94-17.19,5.99-2.76,8.09-7.59,9.58-13.38,3.49-13.59,7.41-27.05,13.14-41.7,1.43,8.63,3.09,15.64,3.65,22.73,1.28,16.3,6.95,31.52,11.03,47.11,2.58,9.83,8.5,17.86,15.72,24.88,15.15,14.74,30.39,29.4,45.59,44.1,4.16,4.02,7.48,8.69,10.76,13.42,2.85,4.12,4.25,8.2,2.01,13.16-1.31,2.9-1.54,6.24-.15,9.18,5.44,11.52,3.52,23.49,2.43,35.42-.12,1.3-.5,2.61-.4,3.89.58,7.39,1.22,15,8.85,18.83,7.77,3.9,13.61-1.02,18.95-5.62,11.76-10.14,16.71-23.15,14.41-38.55-1.52-10.17-1.5-20.21-.07-30.39,2.53-18.04-3.43-26.31-21.31-29.44-4.29-.75-6.41-3.02-8.05-6.42-3.63-7.52-7.05-15.15-10.85-22.59-4.18-8.16-8.85-15.95-16.77-21.29-6.01-4.06-8.98-19.41-4.88-25.35,1.55-2.25,2.87-4.26,2.79-7.03-.9-28.95-1.64-57.9-2.71-86.85-.79-21.32-1.8-42.48-.37-63.96,1.06-15.82,2.15-32.24-2.57-48.68-3.22-11.24-3.81-24.72,3.94-36.08,3.1-4.55,6.44-6.53,11.73-3.57,2.95,1.65,6.14,2.88,9.24,4.27,1.67.75,3.73,2.05,5.2.97,8.04-5.93,16.57-2.27,24.84-1.41,21.84,2.28,27.36-1.73,32-23.86,4.14-19.73-.41-38.97-3.54-58.22-1.07-6.56-1.96-11.27,5.37-15.32,7.63-4.21,4.69-12.77,3.69-19.31-1.28-8.31-6.78-15.14-11.09-22.28-.51-.85-1.44-1.86-2.31-2-14.09-2.4-17.91-15.73-24.41-24.97-11.66-16.58-20.45-35.16-30.77-52.72-3.04-5.16-3.6-8.64,1.24-13.43,9.56-9.46,9.11-21.81,6.74-33.84-3.54-17.99-13.08-32.34-28.7-42.15-9.52-5.98-20.04-8.62-30.45-2.8-10.37,5.8-13.68,15.7-13.42,27.28.5,22.84,10.27,40.58,28.81,53.6,6.12,4.3,12.98,6.83,20.59,6.23,4.76-.38,7.82,1.36,10.15,5.54,10.42,18.7,22.33,36.72,31.08,56.15,5.74,12.74,12.96,26.33,7.84,41.83-1.9,5.76.09,11.97.91,17.85,2.46,17.59.3,34.91-2.53,52.17-1.5,9.17-3.07,9.44-11.04,4.76-8.95-5.26-16.56-11.83-21.71-20.95-2.5-4.42-6.31-6.61-11.16-7.76-10.41-2.47-20.71-5.37-31.11-7.92-6.35-1.56-7.63-5.25-5.76-11.12,1.49-4.68,4.57-8.18,7.61-11.72,13.56-15.78,11.63-39.13-4.61-52.52-7.32-6.03-15.6-10.5-24.73-13.19-12.8-3.77-22.56,1.16-27.09,13.65-1.71,4.7-3.48,9.27-7.72,12.42-2.77,2.06-3.83,5.01-3.01,8.34,1.66,6.67,1.08,13.49,1.21,20.22.13,6.53,1.63,11.76,7.47,15.29,1.46.88,3.89,1.76,3.32,3.84-.66,2.39-3.35,2.15-5.34,2.17-6.93.06-13.49-1.48-19.38-5.24-8.18-5.22-16.54-6.41-26.1-3.55-12.26,3.68-25.26,2.38-37.9,3.76-5.56.61-11.21-3.01-15.72-6.41-16.29-12.29-35.36-19-53.64-27.21-19.6-8.81-38.67-18.41-55.27-32.23-11.71-9.74-24.11-10-37.21-3.65-2.59,1.26-7.31,1.61-6.27,5.57.94,3.56,5.25,3.74,8.73,3.66,3.1-.07,6.2-1.23,9.27.17,1.6.73,3.63.95,3.78,3.77Z" style="fill: #3a3a3a;"/>
</svg>